<svg width="627" height="422" viewBox="0 0 627 422" fill="none" xmlns="http://www.w3.org/2000/svg">
<path d="M627 420.833H360.273V422H627V420.833Z" fill="#3F3D56"/>
<path d="M606.596 403.906H339.87V405.073H606.596V403.906Z" fill="#3F3D56"/>
<path d="M522.069 386.979H255.343V388.147H522.069V386.979Z" fill="#3F3D56"/>
<path d="M191.938 335.952C190.32 335.952 188.687 335.926 187.083 335.876L187.119 334.71C189.422 334.782 191.772 334.802 194.086 334.77L194.102 335.937C193.382 335.947 192.66 335.952 191.938 335.952ZM201.116 335.681L201.048 334.516C203.354 334.38 205.69 334.188 207.991 333.947L208.112 335.108C205.794 335.351 203.441 335.544 201.116 335.681H201.116ZM180.074 335.499C177.749 335.321 175.399 335.087 173.089 334.803L173.232 333.645C175.524 333.926 177.855 334.159 180.163 334.335L180.074 335.499ZM215.074 334.216L214.899 333.062C217.191 332.714 219.5 332.31 221.76 331.86L221.988 333.004C219.709 333.458 217.383 333.865 215.074 334.216ZM166.144 333.789C163.847 333.399 161.528 332.951 159.252 332.456L159.499 331.315C161.758 331.806 164.059 332.251 166.339 332.637L166.144 333.789ZM228.84 331.476L228.559 330.343C230.809 329.786 233.07 329.171 235.282 328.514L235.613 329.634C233.385 330.295 231.106 330.915 228.84 331.476ZM152.429 330.807C150.175 330.207 147.907 329.547 145.688 328.844L146.04 327.731C148.242 328.429 150.492 329.083 152.728 329.679L152.429 330.807ZM242.295 327.479L241.913 326.377C244.095 325.617 246.29 324.796 248.438 323.935L248.871 325.019C246.707 325.886 244.495 326.714 242.295 327.479ZM139.028 326.565C136.84 325.76 134.637 324.891 132.483 323.982L132.936 322.906C135.073 323.808 137.259 324.67 139.431 325.47L139.028 326.565ZM255.312 322.265L254.829 321.202C256.925 320.249 259.032 319.23 261.091 318.177L261.622 319.216C259.547 320.278 257.424 321.304 255.312 322.265ZM267.786 315.88L267.209 314.867C269.219 313.718 271.226 312.511 273.172 311.278L273.795 312.264C271.834 313.507 269.812 314.723 267.786 315.88ZM279.634 308.375L278.966 307.419C280.859 306.095 282.748 304.708 284.581 303.298L285.291 304.224C283.445 305.645 281.541 307.042 279.634 308.375ZM101.936 306.732C100.054 305.363 98.174 303.929 96.348 302.47L97.0755 301.558C98.8876 303.006 100.753 304.429 102.62 305.786L101.936 306.732ZM290.755 299.817L290.003 298.925C291.767 297.434 293.523 295.881 295.222 294.308L296.014 295.165C294.302 296.75 292.532 298.315 290.755 299.817ZM90.9614 297.958C89.2089 296.421 87.4677 294.823 85.7866 293.207L86.5939 292.365C88.2625 293.969 89.9902 295.555 91.7294 297.08L90.9614 297.958ZM301.057 290.276L300.227 289.457C301.853 287.806 303.462 286.099 305.008 284.381L305.874 285.162C304.317 286.893 302.696 288.614 301.057 290.276ZM80.8344 288.227C79.2265 286.534 77.6384 284.784 76.1144 283.026L76.9951 282.261C78.5074 284.006 80.0832 285.742 81.6792 287.422L80.8344 288.227ZM310.454 279.833L309.554 279.092C311.023 277.302 312.469 275.455 313.855 273.6L314.788 274.299C313.393 276.168 311.935 278.03 310.454 279.833ZM71.6367 277.617C70.1927 275.79 68.7709 273.904 67.4106 272.011L68.3567 271.329C69.7068 273.208 71.1178 275.079 72.551 276.893L71.6367 277.617ZM318.865 268.572L317.901 267.916C319.201 265.999 320.475 264.027 321.686 262.052L322.68 262.663C321.458 264.652 320.175 266.641 318.865 268.572ZM63.4455 266.22C62.1752 264.27 60.9319 262.264 59.7497 260.255L60.7539 259.662C61.9272 261.655 63.1612 263.647 64.4219 265.582L63.4455 266.22ZM326.219 256.583L325.199 256.019C326.319 253.991 327.406 251.908 328.432 249.828L329.477 250.346C328.444 252.441 327.347 254.54 326.219 256.583ZM332.446 243.963L331.378 243.495C332.307 241.37 333.199 239.195 334.029 237.029L335.118 237.447C334.281 239.63 333.382 241.822 332.446 243.963ZM50.3551 241.444C49.4613 239.297 48.6054 237.099 47.8112 234.913L48.9071 234.514C49.695 236.684 50.5444 238.864 51.431 240.995L50.3551 241.444ZM337.487 230.812L336.381 230.445C337.108 228.25 337.795 226.007 338.421 223.776L339.544 224.092C338.912 226.339 338.22 228.601 337.487 230.812ZM45.5654 228.254C44.8717 226.029 44.2199 223.757 43.6281 221.498L44.7558 221.202C45.3431 223.443 45.9901 225.699 46.6783 227.906L45.5654 228.254ZM341.287 217.284L340.152 217.019C340.674 214.77 341.151 212.472 341.57 210.191L342.717 210.402C342.294 212.701 341.813 215.016 341.287 217.284ZM42.0045 214.661C41.5183 212.381 41.0783 210.058 40.6969 207.756L41.8468 207.564C42.2257 209.849 42.6623 212.154 43.1448 214.417L42.0045 214.661ZM343.828 203.464L342.672 203.305C342.986 201.019 343.251 198.688 343.46 196.376L344.621 196.481C344.41 198.811 344.143 201.16 343.828 203.464H343.828ZM39.7069 200.798C39.4319 198.488 39.2062 196.134 39.0357 193.803L40.1987 193.718C40.3675 196.031 40.5918 198.367 40.8648 200.66L39.7069 200.798ZM345.096 189.47L343.931 189.417C344.035 187.104 344.088 184.758 344.088 182.444H345.254C345.254 184.776 345.201 187.139 345.096 189.47ZM38.6824 186.784C38.6426 185.352 38.6224 183.892 38.6221 182.444C38.6221 181.546 38.6298 180.649 38.6451 179.755L39.811 179.775C39.7957 180.663 39.788 181.553 39.788 182.444C39.7883 183.881 39.8085 185.331 39.8477 186.752L38.6824 186.784ZM40.0877 172.806L38.9241 172.733C39.0695 170.401 39.2705 168.045 39.5207 165.731L40.6798 165.857C40.4313 168.153 40.2323 170.491 40.0877 172.806H40.0877ZM343.335 165.684C343.102 163.383 342.782 162.261 342.444 159.969L343.597 159.799C343.937 162.108 344.229 163.87 344.465 166.189L343.335 165.684ZM41.5875 158.942L40.4352 158.763C40.7925 156.454 41.2075 154.127 41.6689 151.845L42.8115 152.076C42.3537 154.341 41.9419 156.65 41.5875 158.942H41.5875ZM341.267 153.096C340.822 150.819 340.321 148.527 339.775 146.283L340.908 146.007C341.458 148.268 341.963 150.578 342.411 152.872L341.267 153.096ZM44.3491 145.274L43.2182 144.99C43.7844 142.729 44.4114 140.449 45.082 138.214L46.1984 138.55C45.5332 140.768 44.911 143.03 44.3491 145.274ZM337.972 139.546C337.322 137.323 336.611 135.087 335.86 132.9L336.962 132.52C337.72 134.725 338.436 136.978 339.091 139.218L337.972 139.546ZM48.3626 131.9L47.2627 131.513C48.0375 129.306 48.8741 127.089 49.7491 124.922L50.8301 125.36C49.9617 127.51 49.1314 129.71 48.3626 131.9ZM333.444 126.358C332.594 124.21 331.683 122.053 330.737 119.949L331.8 119.47C332.754 121.59 333.671 123.763 334.528 125.928L333.444 126.358ZM53.5954 118.944L52.536 118.456C53.5098 116.333 54.5462 114.204 55.6164 112.128L56.6525 112.663C55.5902 114.723 54.5618 116.836 53.5954 118.944ZM327.738 113.67C326.695 111.609 325.589 109.544 324.452 107.532L325.467 106.957C326.613 108.984 327.726 111.065 328.778 113.142L327.738 113.67ZM59.9945 106.532L58.984 105.949C60.1471 103.927 61.3736 101.903 62.6297 99.9336L63.6123 100.562C62.3659 102.516 61.1485 104.525 59.9945 106.532ZM320.889 101.55C319.657 99.5861 318.367 97.6299 317.055 95.7352L318.012 95.07C319.335 96.9792 320.635 98.9503 321.876 100.929L320.889 101.55ZM67.4988 94.7654L66.5459 94.0928C67.8899 92.1841 69.2952 90.2818 70.7236 88.4384L71.6447 89.1537C70.2274 90.9834 68.8324 92.8713 67.4988 94.7654ZM312.958 90.1005C311.553 88.258 310.09 86.4263 308.608 84.6564L309.502 83.9066C310.994 85.6901 312.469 87.5355 313.885 89.392L312.958 90.1005ZM76.041 83.739L75.1535 82.9821C76.6618 81.2082 78.2339 79.4426 79.8259 77.7344L80.6781 78.5307C79.0983 80.2261 77.5382 81.9786 76.041 83.739ZM304.015 79.415C302.449 77.7081 300.824 76.0164 299.187 74.3873L300.009 73.5591C301.659 75.201 303.295 76.9053 304.873 78.625L304.015 79.415ZM85.5458 73.5409L84.7306 72.7064C86.3977 71.0733 88.123 69.4588 89.8579 67.9078L90.6344 68.7788C88.9126 70.3178 87.2004 71.9201 85.5458 73.5409V73.5409ZM294.136 69.5836C292.419 68.025 290.647 66.4877 288.869 65.0145L289.612 64.1151C291.404 65.5994 293.189 67.1483 294.919 68.719L294.136 69.5836ZM95.933 64.2536L95.1969 63.3484C97.0001 61.8781 98.8637 60.428 100.736 59.0384L101.431 59.976C99.5722 61.3554 97.7226 62.7944 95.933 64.2536V64.2536ZM107.115 55.9553L106.465 54.9868C108.394 53.6867 110.381 52.4136 112.37 51.202L112.976 52.1996C111.002 53.4017 109.031 54.6654 107.115 55.9553ZM119 48.7168L118.441 47.6926C120.482 46.5739 122.576 45.4887 124.663 44.4664L125.175 45.5152C123.104 46.5295 121.027 47.6065 119 48.7168H119ZM259.707 46.0122C257.632 44.9774 255.507 43.9776 253.391 43.0408L253.862 41.9732C255.995 42.9171 258.137 43.9246 260.227 44.9674L259.707 46.0122ZM131.488 42.601L131.025 41.53C133.158 40.604 135.341 39.716 137.512 38.8903L137.926 39.9819C135.771 40.801 133.606 41.6822 131.488 42.601H131.488ZM246.942 40.3629C244.784 39.5248 242.574 38.725 240.375 37.9863L240.746 36.8794C242.962 37.6241 245.188 38.4298 247.364 39.2748L246.942 40.3629ZM144.493 37.6566L144.13 36.5474C146.345 35.82 148.606 35.1352 150.848 34.5125L151.16 35.6371C148.935 36.2552 146.691 36.9347 144.493 37.6566ZM233.721 35.9209C231.498 35.2862 229.23 34.6951 226.98 34.1642L227.248 33.0282C229.515 33.5631 231.8 34.1588 234.041 34.798L233.721 35.9209ZM157.914 33.9274L157.654 32.7894C159.925 32.2698 162.239 31.7964 164.531 31.3826L164.738 32.5312C162.464 32.9421 160.168 33.4118 157.914 33.9274ZM220.165 32.721C217.895 32.2943 215.583 31.9147 213.292 31.5926L213.453 30.4367C215.762 30.7613 218.093 31.1438 220.381 31.5736L220.165 32.721ZM171.62 31.4507L171.466 30.2936C173.774 29.9853 176.121 29.7259 178.442 29.5236L178.543 30.6863C176.24 30.8876 173.911 31.1446 171.62 31.4507ZM206.373 30.781C204.077 30.5644 201.739 30.3974 199.425 30.2854L199.482 29.1191C201.813 29.2323 204.168 29.4004 206.483 29.6188L206.373 30.781ZM185.495 30.2386L185.446 29.0724C187.589 28.9829 189.773 28.9373 191.938 28.9367L192.466 28.9376L192.462 30.105L191.938 30.1041C189.789 30.1047 187.621 30.15 185.495 30.2386Z" fill="#3F3D56"/>
<path d="M453.803 136.208L450.889 156.053C450.889 156.053 438.064 181.735 446.225 208.001L456.718 201.58C456.718 201.58 464.879 170.062 464.879 167.727C464.879 165.392 468.377 137.959 468.377 137.959L453.803 136.208Z" fill="#FFB9B9"/>
<path d="M459.633 199.829L445.642 209.168L452.638 243.605C452.638 243.605 454.387 290.3 453.804 292.051C453.221 293.802 442.728 365.011 442.728 365.011C442.728 365.011 454.969 370.847 466.046 367.345C466.046 367.345 477.122 314.814 477.122 299.638L489.946 246.524L509.767 307.226C509.767 307.226 510.933 348.084 513.264 361.508C515.596 374.933 515.596 376.684 515.596 376.684C515.596 376.684 534.251 381.937 538.914 376.684C538.914 376.684 536.582 307.81 534.834 300.806L530.753 217.34L459.633 199.829Z" fill="#2F2E41"/>
<path d="M447.391 365.011C447.391 365.011 446.225 363.26 442.727 367.929C439.23 372.598 428.154 381.354 428.154 381.354C428.154 381.354 397.84 402.95 420.575 404.117C443.31 405.284 447.391 393.611 447.391 393.611C447.391 393.611 466.628 390.109 467.211 386.023C467.794 381.937 464.879 365.594 464.879 365.594L447.391 365.011Z" fill="#2F2E41"/>
<path d="M516.762 375.517C516.762 375.517 512.681 389.525 513.847 395.362C515.013 401.199 511.515 422.795 527.838 421.044C544.161 419.293 538.914 400.615 538.914 400.615L533.667 376.684L516.762 375.517Z" fill="#2F2E41"/>
<path d="M493.735 69.9608C504.36 69.9608 512.973 61.3371 512.973 50.6994C512.973 40.0616 504.36 31.4379 493.735 31.4379C483.111 31.4379 474.498 40.0616 474.498 50.6994C474.498 61.3371 483.111 69.9608 493.735 69.9608Z" fill="#FFB9B9"/>
<path d="M482.368 60.9137C482.368 60.9137 488.198 81.3425 483.534 88.9303C478.87 96.5182 515.013 90.0977 517.345 83.0935C517.345 83.0935 505.686 70.2526 507.435 57.9953L482.368 60.9137Z" fill="#FFB9B9"/>
<path d="M491.696 88.3467C491.696 88.3467 507.653 89.4269 515.414 80.7153L544.161 93.0161L531.919 160.723C531.919 160.723 556.403 217.923 534.251 223.177C512.099 228.43 447.974 223.177 450.889 203.915C453.804 184.654 465.463 161.307 465.463 161.307C465.463 161.307 468.378 135.625 461.965 123.951C455.553 112.278 459.633 98.8529 459.633 98.8529L485.294 81.8299C485.294 81.8299 486.449 88.3467 491.696 88.3467Z" fill="#575A89"/>
<path d="M466.628 99.4366H459.633C459.633 99.4366 451.471 101.188 453.22 123.367L449.14 139.127C449.14 139.127 469.543 144.38 472.458 141.461C475.372 138.543 466.628 99.4366 466.628 99.4366Z" fill="#575A89"/>
<path d="M551.157 134.457L548.825 154.886C548.825 154.886 551.74 181.735 541.829 202.748L538.332 213.254C538.332 213.254 534.834 243.605 525.507 243.605C516.18 243.605 525.507 209.168 525.507 209.168L530.17 174.731C530.17 174.731 533.668 161.307 531.336 155.47C529.004 149.633 528.422 137.376 528.422 137.376L551.157 134.457Z" fill="#FFB9B9"/>
<path d="M489.009 38.0959C491.864 37.6488 494.742 37.3631 497.629 37.2402C499.721 37.1512 501.9 37.1654 503.791 38.0667C506.641 39.4258 508.238 42.498 509.283 45.4804C510.329 48.4629 511.07 51.6502 513.01 54.1441C516.237 50.7715 516.882 45.7574 517.362 41.1117C517.7 37.844 518 34.3597 516.491 31.4427C515.561 29.646 514.028 28.2459 512.474 26.9514C505.059 20.7723 495.642 15.9101 486.095 17.298L485.872 18.7738C484.242 18.7247 482.612 18.8273 481.002 19.0802L481.343 22.7416L476.272 23.0637L476.077 26.8796L470.949 27.0576C471.047 28.524 471.685 29.9019 472.738 30.9258C471.949 31.4966 471.053 31.9018 470.104 32.1171C470.959 35.4318 471.789 38.7541 472.672 42.0614C473.323 44.4977 473.207 46.6502 475.817 45.4613C477.804 44.556 479.149 41.6772 481.158 40.4878C483.524 39.0866 486.326 38.5162 489.009 38.0959Z" fill="#2F2E41"/>
<path d="M535.999 93.5998H544.16C544.16 93.5998 557.568 138.543 555.236 139.127C552.905 139.71 525.506 141.461 525.506 141.461L535.999 93.5998Z" fill="#575A89"/>
<path d="M188.853 226.97C214.931 226.97 236.072 205.803 236.072 179.692C236.072 153.582 214.931 132.414 188.853 132.414C162.774 132.414 141.634 153.582 141.634 179.692C141.634 205.803 162.774 226.97 188.853 226.97Z" fill="#00BB14"/>
<path d="M218.583 175.023H193.516V149.925H184.189V175.023H159.122V184.362H184.189V209.46H193.516V184.362H218.583V175.023Z" fill="white"/>
<path d="M105.958 259.556H41.7441V334.462H105.958V259.556Z" fill="#F2F2F2"/>
<path d="M130.895 335.086H41.1211V245.199H130.895V335.086ZM42.368 333.837H129.648V246.448H42.368V333.837Z" fill="#3F3D56"/>
<path d="M114.686 271.416H59.8242V272.665H114.686V271.416Z" fill="#3F3D56"/>
<path d="M114.686 285.149H59.8242V286.397H114.686V285.149Z" fill="#3F3D56"/>
<path d="M114.686 298.881H59.8242V300.13H114.686V298.881Z" fill="#3F3D56"/>
<path d="M260.457 13.3281H131.042V77.6293H260.457V13.3281Z" fill="#F2F2F2"/>
<path d="M286.689 78.213H130.459V0H286.689V78.213ZM131.625 77.0456H285.524V1.16736H131.625V77.0456Z" fill="#3F3D56"/>
<path d="M237.704 32.6376H153.795V33.8049H237.704V32.6376Z" fill="#3F3D56"/>
<path d="M237.704 44.8948H153.795V46.0622H237.704V44.8948Z" fill="#3F3D56"/>
<path d="M237.704 57.1521H153.795V58.3195H237.704V57.1521Z" fill="#3F3D56"/>
<path d="M364.321 175.607H308.94V234.558H364.321V175.607Z" fill="#F2F2F2"/>
<path d="M378.311 235.142H308.357V165.1H378.311V235.142ZM309.523 233.975H377.145V166.268H309.523V233.975Z" fill="#3F3D56"/>
<path d="M355.868 196.911H317.394V198.078H355.868V196.911Z" fill="#3F3D56"/>
<path d="M355.868 204.499H317.394V205.666H355.868V204.499Z" fill="#3F3D56"/>
<path d="M355.868 212.087H317.394V213.254H355.868V212.087Z" fill="#3F3D56"/>
<path d="M341.937 77.0456H75.2109V78.213H341.937V77.0456Z" fill="#3F3D56"/>
<path d="M416.494 233.975H270.174V235.142H416.494V233.975Z" fill="#3F3D56"/>
<path d="M172.016 334.367H0V335.535H172.016V334.367Z" fill="#3F3D56"/>
</svg>
