<svg width="582" height="431" viewBox="0 0 582 431" fill="none" xmlns="http://www.w3.org/2000/svg">
<g clip-path="url(#clip0)">
<path d="M418.813 255.684L423.391 252.861C423.827 252.585 424.256 252.291 424.697 252.015C414.877 250.328 405.929 245.34 399.333 237.877C392.737 230.414 388.888 220.923 388.425 210.977C388.088 204.136 389.382 197.313 392.2 191.07C394.824 185.228 398.698 180.033 403.55 175.851C408.401 171.668 414.111 168.6 420.278 166.863L420.051 184.871L429.95 165.27C429.99 165.264 430.032 165.264 430.072 165.27C435.808 165.003 441.541 165.867 446.943 167.813C452.345 169.76 457.31 172.75 461.555 176.615C465.8 180.479 469.242 185.141 471.685 190.335C474.127 195.529 475.522 201.152 475.789 206.885C475.826 207.718 475.789 208.539 475.789 209.335C479.234 205.409 482.359 201.201 484.431 196.588C488.623 187.247 488.721 176.669 488.372 163.812C487.71 138.332 486.613 112.661 485.179 87.0636C474.844 85.9166 465.257 81.124 458.14 73.547C451.023 65.9699 446.843 56.1051 446.351 45.7246C446.29 44.3832 446.308 43.0663 446.351 41.7555C446.351 41.4309 446.351 41.1001 446.4 40.7755C446.486 39.5076 446.602 38.2519 446.798 37.0146C446.798 36.8063 446.872 36.6103 446.909 36.4021C447.089 35.3526 447.303 34.3154 447.552 33.2905C447.65 32.9107 447.742 32.5248 447.846 32.1451C448.153 31.0303 448.459 29.9339 448.882 28.8497C449.011 28.4883 449.164 28.1392 449.299 27.7839C449.612 26.9876 449.949 26.2036 450.304 25.4257C450.494 25.0153 450.678 24.6111 450.88 24.2007C450.929 24.0965 450.972 23.9924 451.027 23.8883C455.642 14.7791 463.305 7.57399 472.684 3.52532C482.063 -0.523348 492.565 -1.15955 502.365 1.72729L502.071 25.1623L511.877 5.80668C519.921 10.4081 526.282 17.4591 530.031 25.93C533.78 34.401 534.721 43.8479 532.716 52.8911H532.765C532.698 53.2035 532.6 53.5036 532.526 53.8099C532.391 54.3857 532.244 54.9553 532.085 55.525C531.876 56.2539 531.643 56.9705 531.404 57.6872C531.22 58.2201 531.043 58.7652 530.84 59.292C530.546 60.0637 530.228 60.8171 529.872 61.5705C529.676 62.0116 529.498 62.4587 529.259 62.8936C528.699 64.0206 528.086 65.1232 527.42 66.2012C527.194 66.5748 526.936 66.9301 526.697 67.3037C526.231 68.0265 525.759 68.7432 525.251 69.4414C524.938 69.8702 524.601 70.2806 524.27 70.7032C523.792 71.3157 523.302 71.9283 522.793 72.4857C522.431 72.896 522.064 73.3003 521.684 73.7107C521.15 74.2742 520.599 74.8194 520.029 75.3584C519.655 75.7198 519.275 76.0811 518.883 76.4242C518.239 76.9938 517.565 77.5389 516.885 78.0718C516.541 78.3413 516.21 78.6231 515.855 78.8804C514.821 79.6481 513.753 80.3688 512.649 81.0426C512.441 81.1651 512.22 81.2692 512.036 81.3917C511.117 81.9368 510.198 82.4452 509.211 82.923C508.8 83.1251 508.371 83.3028 507.948 83.4926C507.158 83.8479 506.361 84.1909 505.546 84.5033C505.074 84.6809 504.59 84.8463 504.105 85.0117C503.302 85.2873 502.487 85.5385 501.654 85.7651C501.163 85.8998 500.679 86.0346 500.183 86.151C499.288 86.3654 498.375 86.543 497.455 86.6961C497.394 86.6961 497.339 86.6961 497.278 86.7329C497.882 97.5296 498.42 108.332 498.89 119.141C501.496 113.793 505.169 109.033 509.683 105.154C514.196 101.275 519.455 98.3587 525.137 96.5836C530.819 94.8085 536.804 94.2121 542.724 94.8312C548.645 95.4503 554.377 97.2718 559.568 100.184L551.839 121.346L567.738 106.089C576.248 113.884 581.318 124.735 581.834 136.261C582.037 140.306 581.663 144.358 580.725 148.297C578.728 156.822 574.213 164.55 567.767 170.479C561.321 176.408 553.24 180.264 544.574 181.547C535.908 182.83 527.056 181.48 519.166 177.674C511.277 173.867 504.714 167.779 500.33 160.199C500.33 161.295 500.41 162.398 500.44 163.494C500.728 174.838 501.09 188.95 495.433 201.556C491.602 210.101 485.43 217.04 479.332 223.258C475.366 227.306 471.253 231.22 467.037 235.012C462.891 240.576 457.478 245.073 451.248 248.132C444.322 253.465 437.151 258.459 429.735 263.114L425.23 266.018C421.068 268.596 416.803 271.242 412.616 273.98C413.352 273.907 414.081 273.827 414.829 273.797C424.095 273.363 433.259 275.884 440.998 280.996C448.736 286.108 454.648 293.546 457.88 302.236L430.556 324.464L460.589 317.5C460.581 324.889 458.698 332.156 455.118 338.621C451.537 345.086 446.375 350.539 440.114 354.469C433.853 358.4 426.697 360.68 419.315 361.097C411.933 361.514 404.565 360.055 397.901 356.854C398.575 357.7 399.255 358.539 399.929 359.378C401.272 361.05 402.608 362.71 403.913 364.358C421.688 386.856 426.64 408.22 417.832 424.507L407.131 418.725C415.712 402.873 402.841 382.586 394.364 371.892C393.083 370.275 391.771 368.645 390.448 366.992C379.09 352.904 366.219 336.905 366.544 317.298C367.004 287.774 395.743 269.968 418.813 255.684Z" fill="#F2F2F2"/>
<path d="M279.18 431C433.367 431 558.36 425.241 558.36 418.137C558.36 411.033 433.367 405.274 279.18 405.274C124.993 405.274 0 411.033 0 418.137C0 425.241 124.993 431 279.18 431Z" fill="#3F3D56"/>
<path d="M504.724 413.341C506.563 409.966 504.479 405.832 502.101 402.818C499.723 399.804 496.824 396.693 496.885 392.84C496.971 387.327 502.824 384.075 507.507 381.153C510.975 378.983 514.174 376.411 517.038 373.49C518.24 372.367 519.234 371.04 519.974 369.57C520.936 367.414 520.911 364.964 520.85 362.6C520.646 354.735 520.258 346.878 519.685 339.03" stroke="#3F3D56" stroke-width="4" stroke-miterlimit="10"/>
<path d="M528.579 338.614C528.51 337.174 528.082 335.776 527.332 334.545C526.583 333.314 525.536 332.291 524.289 331.57L522.364 335.379L522.419 330.773C521.103 330.379 519.711 330.307 518.361 330.562C517.011 330.817 515.742 331.393 514.66 332.241C513.579 333.088 512.718 334.183 512.148 335.433C511.578 336.682 511.317 338.051 511.387 339.422C511.494 341.696 512.501 343.835 514.186 345.367C515.02 346.126 515.996 346.713 517.058 347.095C518.119 347.477 519.245 347.646 520.372 347.593C521.499 347.54 522.604 347.266 523.625 346.786C524.646 346.306 525.562 345.629 526.321 344.796C527.08 343.962 527.668 342.987 528.05 341.926C528.432 340.865 528.601 339.74 528.548 338.614H528.579Z" fill="#57B793"/>
<path d="M513.238 396.803C512.337 398.552 510.862 399.938 509.061 400.729C507.259 401.52 505.24 401.668 503.342 401.149C501.444 400.629 499.782 399.474 498.635 397.875C497.489 396.277 496.926 394.334 497.043 392.37C497.159 390.407 497.947 388.544 499.275 387.092C500.603 385.641 502.39 384.689 504.336 384.398C506.282 384.106 508.269 384.492 509.965 385.49C511.66 386.488 512.961 388.039 513.648 389.881L508.279 394.249L514.188 392.877C514.188 394.242 513.863 395.588 513.238 396.803Z" fill="#57B793"/>
<path d="M508.99 380.087C507.862 380.142 506.733 379.973 505.67 379.59C504.607 379.207 503.63 378.619 502.795 377.858C501.961 377.097 501.284 376.179 500.805 375.156C500.327 374.133 500.055 373.026 500.005 371.898C499.937 370.553 500.191 369.211 500.747 367.984C501.262 366.835 502.023 365.813 502.976 364.989C503.929 364.166 505.051 363.562 506.263 363.218L506.22 366.765L508.169 362.906C510.449 362.8 512.678 363.603 514.365 365.139C516.052 366.674 517.06 368.817 517.166 371.096C517.273 373.374 516.469 375.601 514.933 377.287C513.396 378.974 511.252 379.981 508.972 380.087H508.99Z" fill="#57B793"/>
<path d="M529.872 366.177C527.596 366.284 525.371 365.484 523.686 363.951C522.001 362.419 520.994 360.28 520.887 358.006C520.78 355.732 521.581 353.508 523.114 351.824C524.647 350.14 526.787 349.134 529.063 349.026C530.672 348.947 532.27 349.325 533.672 350.117L532.152 354.282L535.278 351.28C536.955 352.813 537.956 354.947 538.061 357.216C538.1 358.01 538.025 358.806 537.84 359.58C537.411 361.396 536.401 363.023 534.963 364.214C533.525 365.404 531.738 366.094 529.872 366.177Z" fill="#57B793"/>
<path opacity="0.1" d="M527.42 340.88C525.435 341.1 523.504 341.719 521.512 341.842C519.52 341.964 517.332 341.486 516.069 339.937C515.389 339.104 515.052 338.05 514.476 337.143C513.933 336.296 513.19 335.596 512.312 335.104C511.793 336.188 511.508 337.369 511.475 338.571C511.442 339.772 511.663 340.967 512.122 342.078C512.581 343.189 513.268 344.191 514.14 345.019C515.012 345.847 516.048 346.483 517.181 346.885C518.314 347.287 519.519 347.447 520.718 347.354C521.917 347.261 523.083 346.917 524.141 346.344C525.198 345.771 526.123 344.983 526.856 344.03C527.589 343.077 528.113 341.981 528.395 340.812C528.064 340.825 527.739 340.849 527.42 340.88Z" fill="black"/>
<path opacity="0.1" d="M529.872 366.177C528.388 366.252 526.911 365.941 525.584 365.275C524.256 364.608 523.125 363.608 522.3 362.374C521.476 361.139 520.986 359.711 520.879 358.231C520.772 356.75 521.051 355.267 521.69 353.927C522.372 354.387 522.959 354.976 523.418 355.66C524.031 356.585 524.399 357.651 525.122 358.502C526.458 360.076 528.75 360.591 530.828 360.493C532.906 360.395 534.904 359.813 536.957 359.623C537.239 359.623 537.533 359.574 537.821 359.568C537.396 361.383 536.389 363.011 534.955 364.204C533.52 365.396 531.736 366.089 529.872 366.177Z" fill="black"/>
<path opacity="0.1" d="M508.99 380.087C507.862 380.142 506.733 379.973 505.67 379.59C504.607 379.207 503.63 378.619 502.795 377.858C501.961 377.097 501.284 376.179 500.805 375.156C500.327 374.133 500.055 373.026 500.005 371.898C499.937 370.553 500.191 369.211 500.747 367.984C501.46 368.45 502.083 369.042 502.585 369.73C503.253 370.673 503.67 371.757 504.424 372.627C505.877 374.244 508.316 374.813 510.516 374.758C512.717 374.703 514.696 374.189 516.817 374.029C516.294 375.721 515.261 377.21 513.861 378.294C512.46 379.378 510.76 380.004 508.99 380.087Z" fill="black"/>
<path opacity="0.1" d="M513.238 396.803C512.775 397.832 512.114 398.76 511.292 399.534C510.47 400.308 509.504 400.912 508.449 401.313C507.393 401.714 506.269 401.903 505.141 401.869C504.012 401.836 502.901 401.581 501.871 401.118C500.841 400.656 499.913 399.995 499.138 399.174C498.364 398.353 497.759 397.387 497.358 396.332C496.957 395.277 496.768 394.154 496.802 393.026C496.835 391.898 497.091 390.788 497.553 389.759C498.259 390.228 498.895 390.795 499.441 391.443C500.256 392.442 500.796 393.569 501.746 394.506C503.505 396.227 506.342 396.956 508.868 397.005C510.327 397.024 511.786 396.957 513.238 396.803Z" fill="black"/>
<path d="M491.755 409.452C491.755 409.452 498.54 409.243 500.587 407.785C502.634 406.328 511.007 404.588 511.54 406.928C512.073 409.268 521.745 418.566 514.077 418.603C506.41 418.639 496.266 417.378 494.225 416.152C492.184 414.927 491.755 409.452 491.755 409.452Z" fill="#656380"/>
<path opacity="0.2" d="M514.212 417.788C506.551 417.849 496.401 416.563 494.36 415.338C492.809 414.395 492.184 410.995 491.982 409.427H491.755C491.755 409.427 492.184 414.897 494.207 416.165C496.229 417.433 506.392 418.664 514.059 418.615C516.272 418.615 517.038 417.806 516.995 416.643C516.707 417.335 515.861 417.776 514.212 417.788Z" fill="black"/>
<path d="M119.156 394.445C114.706 386.213 119.769 376.13 125.554 368.792C131.34 361.454 138.425 353.822 138.272 344.469C138.052 331.031 123.783 323.098 112.383 315.975C103.924 310.688 96.1201 304.419 89.1354 297.299C86.3344 294.439 83.6192 291.388 81.9888 287.738C79.6353 282.482 79.6966 276.51 79.8498 270.752C80.3401 251.56 81.2881 232.405 82.6937 213.286" stroke="#3F3D56" stroke-width="4" stroke-miterlimit="10"/>
<path d="M61.0151 212.238C61.1829 208.732 62.2295 205.324 64.0586 202.328C65.8878 199.331 68.4409 196.841 71.4836 195.088L76.1785 204.367L76.0375 193.134C80.3027 191.878 84.8569 192.009 89.0427 193.508C93.2284 195.008 96.8291 197.798 99.3247 201.476C101.82 205.153 103.082 209.529 102.927 213.97C102.772 218.411 101.209 222.688 98.4629 226.183C95.7172 229.678 91.9309 232.211 87.6509 233.415C83.3708 234.62 78.8184 234.434 74.6511 232.884C70.4838 231.334 66.9171 228.501 64.4661 224.793C62.0151 221.086 60.8066 216.696 61.0151 212.257V212.238Z" fill="#57B793"/>
<path d="M98.4148 354.074C100.523 358.18 103.93 361.476 108.105 363.449C112.281 365.421 116.991 365.961 121.505 364.983C126.018 364.005 130.083 361.565 133.066 358.042C136.049 354.518 137.785 350.109 138.003 345.498C138.149 342.6 137.683 339.703 136.636 336.997C135.104 333.026 132.4 329.616 128.883 327.219C125.366 324.822 121.202 323.551 116.944 323.575C112.687 323.6 108.538 324.919 105.049 327.357C101.559 329.794 98.8949 333.236 97.4096 337.223L110.507 347.869L96.098 344.518C96.092 347.843 96.8867 351.12 98.4148 354.074Z" fill="#57B793"/>
<path d="M108.767 313.39C113.909 313.625 118.958 311.962 122.952 308.718C126.947 305.473 129.608 300.874 130.43 295.796C131.251 290.718 130.175 285.515 127.407 281.178C124.639 276.842 120.371 273.674 115.417 272.278L115.527 280.908L110.808 271.518H110.753C105.196 271.259 99.7634 273.217 95.6508 276.96C91.5381 280.704 89.082 285.927 88.8227 291.48C88.5635 297.033 90.5223 302.462 94.2683 306.572C98.0142 310.682 103.241 313.137 108.797 313.396L108.767 313.39Z" fill="#57B793"/>
<path d="M57.8586 279.536C61.1053 279.694 64.3443 279.096 67.32 277.788C70.2957 276.481 72.9266 274.5 75.0051 272.003C77.0836 269.505 78.5527 266.559 79.2965 263.397C80.0403 260.234 80.0384 256.943 79.2911 253.781C78.5437 250.62 77.0713 247.675 74.99 245.18C72.9087 242.684 70.2756 240.707 67.2984 239.403C64.3213 238.099 61.0816 237.504 57.8351 237.666C54.5885 237.828 51.4241 238.741 48.5914 240.335L52.2689 250.484L44.6749 243.152C42.6449 244.998 40.9991 247.227 39.8317 249.709C38.6643 252.192 37.9982 254.88 37.8716 257.62C37.7743 259.559 37.9538 261.502 38.4049 263.39C39.4473 267.83 41.9111 271.81 45.422 274.724C48.933 277.638 53.2995 279.327 57.8586 279.536Z" fill="#57B793"/>
<path opacity="0.1" d="M63.8345 217.825C68.6764 218.357 73.3836 219.858 78.2378 220.158C83.0921 220.458 88.4305 219.301 91.5012 215.528C93.156 213.494 93.9834 210.921 95.3809 208.704C96.705 206.638 98.52 204.932 100.664 203.737C101.999 206.393 102.754 209.302 102.878 212.272C103.002 215.242 102.492 218.204 101.383 220.962C100.274 223.72 98.5908 226.211 96.4448 228.269C94.2988 230.327 91.7394 231.905 88.9363 232.899C86.1333 233.893 83.1507 234.28 80.1867 234.034C77.2226 233.788 74.3447 232.915 71.7441 231.473C69.1436 230.03 66.8797 228.051 65.1028 225.668C63.326 223.284 62.0767 220.55 61.438 217.647C62.2532 217.684 63.0499 217.739 63.8345 217.825Z" fill="black"/>
<path opacity="0.1" d="M57.8587 279.536C61.4726 279.702 65.0682 278.932 68.2966 277.301C71.525 275.669 74.2764 273.231 76.2839 270.223C78.2914 267.215 79.4867 263.74 79.7539 260.134C80.0211 256.529 79.3511 252.915 77.8088 249.645C76.1438 250.764 74.7117 252.195 73.592 253.859C72.0965 256.113 71.1956 258.716 69.4365 260.787C66.1697 264.621 60.5922 265.877 55.5296 265.65C50.467 265.423 45.5821 263.978 40.544 263.519C39.8453 263.457 39.1343 263.408 38.4294 263.39C39.4707 267.826 41.9308 271.803 45.4369 274.716C48.9429 277.63 53.3038 279.322 57.8587 279.536Z" fill="black"/>
<path opacity="0.1" d="M108.767 313.39C112.346 313.558 115.908 312.807 119.113 311.208C122.319 309.609 125.061 307.216 127.078 304.257C129.096 301.299 130.321 297.872 130.636 294.306C130.952 290.74 130.348 287.152 128.882 283.885C127.156 285.031 125.654 286.485 124.451 288.173C122.821 290.469 121.803 293.116 119.897 295.235C116.361 299.173 110.416 300.564 105.053 300.435C99.8612 300.325 94.8599 299.051 89.6992 298.653C90.9769 302.77 93.4928 306.393 96.9046 309.03C100.316 311.667 104.458 313.189 108.767 313.39Z" fill="black"/>
<path opacity="0.1" d="M98.4148 354.074C100.523 358.18 103.93 361.476 108.105 363.448C112.281 365.421 116.991 365.961 121.505 364.983C126.018 364.005 130.083 361.565 133.066 358.042C136.049 354.518 137.785 350.109 138.003 345.498C138.149 342.6 137.683 339.703 136.636 336.996C134.91 338.129 133.361 339.51 132.039 341.094C130.047 343.544 128.729 346.276 126.425 348.543C122.134 352.744 115.215 354.484 109.055 354.668C105.5 354.68 101.947 354.482 98.4148 354.074Z" fill="black"/>
<path d="M264.299 406.683L183.395 423.221L181.556 423.037L110.458 415.871V325.83L197.492 311.13L260.621 318.48L260.64 318.878L260.646 319.074L264.299 406.683Z" fill="#00BB14"/>
<path opacity="0.1" d="M264.299 406.683L183.395 423.221L181.556 423.037V330.73L260.64 318.878L264.299 406.683Z" fill="black"/>
<path opacity="0.05" d="M260.646 319.074L260.621 319.093L181.556 330.73L110.458 325.83L197.492 311.13L260.621 318.48L260.64 318.878L260.646 319.074Z" fill="black"/>
<path d="M353.17 410.358L272.266 426.896L270.428 426.712L199.33 419.546V329.505L286.363 314.805L349.493 322.155L349.511 322.553L349.517 322.749L353.17 410.358Z" fill="#3F3D56"/>
<path opacity="0.1" d="M353.17 410.358L272.266 426.896L270.428 426.712V334.406L349.511 322.553L353.17 410.358Z" fill="black"/>
<path opacity="0.05" d="M349.518 322.749L349.493 322.768L270.428 334.406L199.33 329.505L286.363 314.805L349.493 322.155L349.511 322.553L349.518 322.749Z" fill="black"/>
<path d="M297.396 322.155L216.492 338.693L214.653 338.509L143.556 331.343V241.302L230.589 226.602L293.718 233.952L293.737 234.35L293.743 234.546L297.396 322.155Z" fill="#3F3D56"/>
<path opacity="0.1" d="M297.396 322.155L216.492 338.693L214.653 338.509V246.203L293.737 234.35L297.396 322.155Z" fill="black"/>
<path opacity="0.05" d="M293.743 234.546L293.718 234.565L214.653 246.203L143.556 241.302L230.589 226.602L293.718 233.952L293.737 234.35L293.743 234.546Z" fill="black"/>
<path d="M343.364 325.928L301.141 334.565L300.178 334.467L263.073 330.724V283.732L308.495 276.057L341.445 279.897L341.458 280.106V280.204L343.364 325.928Z" fill="#3F3D56"/>
<path opacity="0.1" d="M343.364 325.928L301.141 334.565L300.178 334.467V286.292L341.458 280.106L343.364 325.928Z" fill="black"/>
<path opacity="0.05" d="M341.458 280.204L341.445 280.216L300.178 286.292L263.073 283.732L308.495 276.057L341.445 279.897L341.458 280.106V280.204Z" fill="black"/>
<path d="M229.976 234.663L187.752 243.293L186.79 243.201L149.685 239.459V192.466L195.107 184.791L228.057 188.632L228.07 188.84V188.938L229.976 234.663Z" fill="#3F3D56"/>
<path opacity="0.1" d="M229.976 234.663L187.752 243.293L186.79 243.201V195.026L228.07 188.84L229.976 234.663Z" fill="black"/>
<path opacity="0.05" d="M228.07 188.938L228.057 188.95L186.79 195.027L149.685 192.466L195.107 184.791L228.057 188.632L228.07 188.84V188.938Z" fill="black"/>
<path d="M304.138 232.825L261.914 241.456L260.952 241.364L223.847 237.621V190.629L269.269 182.954L302.219 186.794L302.232 187.002V187.1L304.138 232.825Z" fill="#00BB14"/>
<path opacity="0.1" d="M304.138 232.825L261.914 241.456L260.952 241.364V193.189L302.232 187.002L304.138 232.825Z" fill="black"/>
<path opacity="0.05" d="M302.232 187.1L302.219 187.113L260.952 193.189L223.847 190.629L269.269 182.954L302.219 186.794L302.232 187.002V187.1Z" fill="black"/>
<path d="M326.202 185.661L283.979 194.292L283.017 194.2L245.911 190.457V143.465L291.334 135.79L324.284 139.63L324.296 139.838V139.936L326.202 185.661Z" fill="#3F3D56"/>
<path opacity="0.1" d="M326.202 185.661L283.979 194.291L283.017 194.2V146.025L324.296 139.838L326.202 185.661Z" fill="black"/>
<path opacity="0.05" d="M324.296 139.936L324.284 139.949L283.017 146.025L245.911 143.465L291.334 135.79L324.284 139.63L324.296 139.838V139.936Z" fill="black"/>
<path d="M354.96 89.5934C354.513 93.5747 351.473 96.7844 350.345 100.619C348.653 106.407 351.571 112.624 355.591 117.157C358.832 120.758 362.755 123.681 367.134 125.757C371.512 127.832 376.26 129.019 381.101 129.248C382.523 129.37 383.955 129.214 385.318 128.789C386.531 128.295 387.624 127.547 388.523 126.596C391.539 123.564 393.163 119.368 393.806 115.135C394.45 110.903 394.205 106.597 393.953 102.328C393.953 101.444 393.791 100.568 393.475 99.7428C393.065 98.9579 392.5 98.2641 391.814 97.7031C389.641 95.7067 387.245 93.9659 384.674 92.5151C383.571 91.9026 382.388 91.29 381.683 90.2304C381.199 89.3865 380.885 88.4565 380.757 87.4924L379.967 83.4743C379.827 82.3157 379.431 81.2027 378.808 80.2157C377.417 78.3413 374.751 78.0841 372.416 77.9922L363.835 77.6553C361.169 77.5512 357.663 76.7855 355.058 77.3123C352.607 77.7962 353.434 80.038 353.875 82.0716C354.514 84.5311 354.877 87.0538 354.96 89.5934Z" fill="#FFC0C6"/>
<path opacity="0.1" d="M354.96 89.5934C354.513 93.5747 351.473 96.7844 350.345 100.619C348.653 106.407 351.571 112.624 355.591 117.157C358.832 120.758 362.755 123.681 367.134 125.757C371.512 127.832 376.26 129.019 381.101 129.248C382.523 129.37 383.955 129.214 385.318 128.789C386.531 128.295 387.624 127.547 388.523 126.596C391.539 123.564 393.163 119.368 393.806 115.135C394.45 110.903 394.205 106.597 393.953 102.328C393.953 101.444 393.791 100.568 393.475 99.7428C393.065 98.9579 392.5 98.2641 391.814 97.7031C389.641 95.7067 387.245 93.9659 384.674 92.5151C383.571 91.9026 382.388 91.29 381.683 90.2304C381.199 89.3865 380.885 88.4565 380.757 87.4924L379.967 83.4743C379.827 82.3157 379.431 81.2027 378.808 80.2157C377.417 78.3413 374.751 78.0841 372.416 77.9922L363.835 77.6553C361.169 77.5512 357.663 76.7855 355.058 77.3123C352.607 77.7962 353.434 80.038 353.875 82.0716C354.514 84.5311 354.877 87.0538 354.96 89.5934Z" fill="black"/>
<path d="M409.454 268.915L405.813 308.802C404.863 319.264 403.895 329.769 402.032 340.096C401.419 343.655 400.634 347.195 399.739 350.705C397.251 360.45 393.641 369.975 392.476 379.965C392.439 380.253 392.409 380.577 392.378 380.841C392.139 383.046 391.931 385.275 391.152 387.333C390.539 388.859 389.675 390.249 389.044 391.756C387.818 394.769 387.622 398.102 387.469 401.366C383.051 398.874 378.212 397.213 373.194 396.466C370.743 396.105 368.076 395.854 366.452 394.016C364.613 392.019 364.828 388.963 365.134 386.28C366.099 377.95 367.059 369.623 368.015 361.301C368.334 357.72 368.949 354.172 369.854 350.692C370.185 349.535 370.583 348.396 370.988 347.256C371.545 345.688 372.109 344.12 372.532 342.509C373.119 339.921 373.524 337.295 373.746 334.651C374.733 326.271 375.922 317.91 376.964 309.537L377.019 309.096C378.582 296.405 379.771 283.652 379.427 270.869C379.378 268.976 379.299 267.083 379.176 265.185C379.005 262.434 378.753 260.977 381.015 259.255C383.534 257.357 386.85 256.027 389.73 254.784C391.281 254.11 408.357 248.046 408.731 249.382C409.523 252.218 409.936 255.147 409.956 258.092C409.991 261.706 409.823 265.319 409.454 268.915Z" fill="#605D82"/>
<path opacity="0.1" d="M402.032 340.096C401.419 343.655 400.634 347.195 399.739 350.705C397.251 360.45 393.641 369.975 392.476 379.965C392.439 380.253 392.409 380.577 392.378 380.841C384.766 369.975 378.355 358.288 370.926 347.305C371.484 345.737 372.048 344.169 372.471 342.558C373.08 339.955 373.506 337.313 373.746 334.651C374.733 326.271 375.922 317.91 376.964 309.537L377.019 309.096C377.449 310.873 378.065 312.6 378.857 314.247C383.847 324.379 395.7 329.499 401.498 339.195C401.69 339.498 401.868 339.798 402.032 340.096Z" fill="black"/>
<path d="M340.263 251.023C340.514 259.145 341.813 267.2 343.113 275.224L345.791 291.762C347.256 300.827 348.788 310.07 353.078 318.186C356.29 324.262 360.911 329.444 365.098 334.889C375.382 348.279 383.111 363.451 392.862 377.233C395.7 381.239 399.751 385.576 404.587 384.736C407.762 384.191 410.067 381.545 412.555 379.512C415.497 377.111 419.04 375.353 421.357 372.339C423.673 369.325 424.127 364.327 420.989 362.183C419.916 361.454 418.611 361.179 417.397 360.713C412.537 358.876 409.386 354.123 407.388 349.32C405.39 344.518 404.171 339.367 401.504 334.902C395.706 325.206 383.846 320.085 378.857 309.948C376.063 304.276 375.793 297.697 375.584 291.407L375.039 275.291C374.978 273.527 374.935 271.696 375.652 270.085C377.558 265.797 383.319 265.393 387.99 264.848C393.286 264.23 398.417 262.613 403.11 260.082C405.801 258.631 408.424 256.781 409.852 254.086C411.164 251.636 411.342 248.751 411.495 245.97L413.113 216.759C413.254 214.247 413.376 211.644 412.5 209.292C410.275 203.375 402.798 201.44 396.479 201.721C384.723 202.248 373.874 207.301 362.769 210.719C360.017 211.565 357.252 212.324 354.415 212.894C351.963 213.39 348.898 213.188 346.545 213.984C342.328 215.405 342.432 224.63 341.838 228.452C340.611 235.91 340.084 243.467 340.263 251.023Z" fill="#605D82"/>
<path d="M402.994 385.974C404.03 387.021 404.367 388.552 404.636 389.998C406.135 398.02 406.914 406.16 406.965 414.321C406.898 415.082 407.049 415.847 407.401 416.526C407.694 416.929 408.09 417.246 408.547 417.445C411.544 418.872 415.019 416.881 417.52 414.695C422.147 410.646 426.064 405.207 426.327 399.063C426.395 397.483 426.217 395.884 426.493 394.322C426.897 392.007 428.252 389.992 429.441 387.97C431.475 384.525 433.12 380.864 434.344 377.055C434.798 375.622 435.104 373.821 433.976 372.823C433.581 372.509 433.13 372.274 432.646 372.131L419.101 367.108C417.924 366.673 415.007 374.164 414.547 374.985C413.413 376.988 412.286 378.121 410.012 378.587C407.738 379.052 404.931 378.378 402.761 379.536C399.083 381.49 400.916 383.885 402.994 385.974Z" fill="#535070"/>
<path d="M382.106 390.598C381.855 390.098 381.504 389.654 381.076 389.293C380.45 388.895 379.738 388.654 378.998 388.589C376.424 388.148 373.372 387.86 371.588 389.777C369.921 391.572 370.209 394.494 368.818 396.515C368.377 397.128 367.776 397.679 367.396 398.353C366.924 399.384 366.713 400.516 366.783 401.648C366.71 404.766 366.636 407.896 366.857 411.007C367.034 413.617 367.47 416.355 369.106 418.4C371.729 421.684 376.461 422.155 380.653 422.363L384.055 422.541C384.99 422.65 385.938 422.563 386.838 422.284C387.395 422.028 387.895 421.662 388.308 421.208C388.721 420.755 389.038 420.223 389.24 419.644C391.011 415.246 388.21 410.511 386.482 406.101C384.49 401.023 384.846 395.394 382.106 390.598Z" fill="#535070"/>
<path d="M353.979 67.1445C353.936 66.6986 354.001 66.2489 354.169 65.8337C354.666 64.9578 355.965 65.2212 356.946 65.4417C360.887 66.434 365.042 65.5336 369.106 65.7663C373.17 65.9991 377.742 68.0265 378.557 72.0079C381.505 69.9229 384.046 67.3153 386.053 64.3146C387.181 62.6302 388.161 60.7008 388.008 58.6795C387.787 55.7639 385.342 53.5833 383.105 51.7335L376.363 46.2208C375.475 45.4066 374.45 44.7556 373.335 44.2975C371.778 43.7646 370.074 44.0218 368.432 44.0218C363.529 44.0218 358.27 41.7861 353.9 44.0218C352.061 44.959 350.694 46.5699 349.37 48.138L343.345 55.2677C342.889 55.7222 342.556 56.2849 342.377 56.9031C342.205 57.7729 342.653 58.6305 342.812 59.5064C343.094 61.0989 342.408 62.8017 342.935 64.333C343.811 66.8689 346.9 67.2302 348.788 68.688C349.487 69.2271 350.59 71.0707 351.43 71.0462C352.907 71.0156 353.937 68.3205 353.979 67.1445Z" fill="#3F3D56"/>
<path d="M364.203 88.1723C374.865 88.1723 383.509 79.5339 383.509 68.8779C383.509 58.222 374.865 49.5836 364.203 49.5836C353.54 49.5836 344.896 58.222 344.896 68.8779C344.896 79.5339 353.54 88.1723 364.203 88.1723Z" fill="#FFC0C6"/>
<path d="M368.726 111.099C368.072 109.229 366.84 107.615 365.209 106.49C363.577 105.365 361.63 104.786 359.649 104.839C359.08 104.947 358.492 104.872 357.969 104.625C357.673 104.398 357.436 104.104 357.277 103.767C356.106 101.655 355.163 99.4256 354.464 97.1151C354.157 96.0922 353.734 94.8855 352.698 94.6222C351.865 94.4078 351.013 94.9468 350.455 95.6022C349.961 96.3055 349.425 96.9784 348.849 97.6174C346.398 99.7857 342.107 97.8073 339.539 99.7979C339.116 100.123 338.767 100.539 338.313 100.839C337.872 101.108 337.396 101.314 336.898 101.452C331.912 103.073 327.026 104.981 322.261 107.167C323.977 117.481 325.73 127.992 329.751 137.639C331.663 142.233 333.827 146.735 335.359 151.47C338.755 161.963 338.902 173.19 338.945 184.222C338.945 191.768 338.945 199.473 336.493 206.615C335.941 208.232 335.267 209.837 335.114 211.516C334.961 213.194 335.463 215.093 336.842 216.097C337.641 216.623 338.556 216.945 339.509 217.034C343.744 217.647 348.01 216.532 352.177 215.564C363.351 212.979 374.751 211.497 386.12 210.052L405.182 207.602C406.549 207.506 407.887 207.159 409.129 206.579C412.616 204.674 412.947 199.431 410.778 196.098C409.742 194.5 408.277 193.189 407.401 191.498C406.524 189.808 406.457 187.431 407.958 186.261C411.023 183.872 410.104 179.444 410.251 175.573C410.659 164.743 410.604 153.922 410.085 143.109C409.929 140.867 409.892 138.618 409.975 136.372C410.189 132.562 411.133 128.831 412.077 125.126L417.869 102.34C416.355 99.9511 413.456 98.432 410.716 97.746C407.977 97.06 405.114 96.8579 402.411 96.0187C396.895 94.3036 391.943 89.9547 386.163 90.359C385.725 90.3668 385.294 90.4714 384.901 90.6653C383.601 91.4064 383.804 93.2807 383.724 94.7753C383.54 98.089 381.101 100.851 378.416 102.793C375.732 104.735 372.655 106.144 370.185 108.355C369.756 108.678 369.403 109.091 369.151 109.565C368.899 110.039 368.754 110.563 368.726 111.099Z" fill="#3F3D56"/>
<path d="M292.229 132.715C290.95 133.546 289.591 134.245 288.171 134.804C286.823 135.336 285.383 135.759 284.279 136.69C283.733 137.164 283.275 137.73 282.925 138.362C282.272 139.521 281.942 140.833 281.969 142.162C281.996 143.491 282.379 144.789 283.079 145.919C283.779 147.05 284.77 147.972 285.948 148.59C287.126 149.207 288.449 149.498 289.777 149.431C291.549 149.339 293.222 148.622 294.846 147.918L308.465 141.995C310.769 140.996 313.258 139.832 314.349 137.566C314.474 137.354 314.521 137.105 314.484 136.862C314.378 136.595 314.177 136.376 313.92 136.249C310.851 134.254 308.166 131.722 305.995 128.776C305.437 128.017 304.769 126.228 303.96 125.769C301.079 124.17 294.54 131.22 292.229 132.715Z" fill="#FFC0C6"/>
<path d="M437.807 127.906L442.827 133.64C443.905 134.865 444.984 136.09 445.965 137.413C448.378 140.734 450.313 144.377 451.714 148.236C452.805 151.097 453.712 154.147 453.332 157.185C453.077 158.743 452.656 160.268 452.076 161.736C451.156 164.558 450.014 167.302 448.662 169.944C447.532 171.948 446.256 173.867 444.843 175.683C440.955 180.832 436.701 185.693 432.113 190.23C430.397 191.927 429.661 194.677 428.932 196.968C427.553 201.201 424.274 204.502 421.105 207.626C420.086 208.703 418.959 209.672 417.74 210.517C415.916 211.694 413.782 212.299 411.611 212.257C410.664 212.262 409.726 212.068 408.859 211.687C406.69 210.658 405.586 208.153 405.36 205.764C405.159 203.593 405.522 201.408 406.414 199.418C409.294 193.042 416.692 190.279 421.92 185.624C424.985 182.899 427.332 179.468 429.649 176.081C431.218 173.964 432.529 171.667 433.553 169.239C434.718 166.122 434.264 162.434 435.288 159.274C435.717 157.932 436.514 156.726 436.949 155.396C437.384 154.067 437.531 152.493 436.716 151.348C436.105 150.615 435.325 150.043 434.442 149.682C431.102 147.991 427.363 145.81 426.726 142.117C426.47 140.072 427.005 138.006 428.221 136.341C429.43 134.697 430.846 133.215 432.432 131.931C433.884 130.62 436.342 129.168 437.807 127.906Z" fill="#FFC0C6"/>
<path d="M289.005 140.714C288.122 138.926 287.013 137.1 285.223 136.212C284.352 135.837 283.414 135.643 282.465 135.643C281.517 135.643 280.578 135.837 279.707 136.212C277.973 136.962 276.348 137.942 274.877 139.128L270.55 142.319C269.569 142.962 268.702 143.763 267.982 144.69C267.296 145.813 266.842 147.063 266.646 148.365C266.033 151.348 265.537 154.416 265.966 157.436C266.652 162.336 269.594 166.575 272.83 170.299C274.853 172.614 277.354 174.954 280.43 175.058C281.76 175.101 283.238 174.574 283.789 173.368C283.981 172.888 284.083 172.377 284.089 171.861C284.42 166.422 282.471 161.111 280.204 156.156C279.591 154.808 278.929 153.412 278.978 151.936C278.959 151.685 279.024 151.435 279.162 151.225C279.356 151.021 279.617 150.893 279.897 150.864C283.005 150.251 288.361 152.665 290.537 149.216C291.947 146.938 290.01 142.742 289.005 140.714Z" fill="#FFC0C6"/>
<path d="M352.962 61.0744C352.924 60.6282 352.991 60.1791 353.158 59.7636C353.655 58.8816 354.954 59.1511 355.935 59.3716C359.876 60.3639 364.031 59.4635 368.095 59.6962C372.158 59.929 376.725 61.9564 377.546 65.9378C380.491 63.8494 383.031 61.2425 385.042 58.2446C386.169 56.554 387.15 54.6246 386.997 52.6033C386.776 49.6877 384.325 47.5071 382.094 45.6634L375.352 40.1507C374.466 39.3367 373.443 38.6855 372.33 38.2274C370.767 37.6945 369.069 37.9518 367.427 37.9518C362.523 37.9518 357.265 35.7161 352.895 37.9518C351.056 38.8889 349.689 40.4999 348.365 42.0679L342.334 49.1976C341.881 49.6531 341.55 50.2157 341.372 50.8331C341.2 51.7029 341.648 52.5604 341.807 53.4363C342.089 55.0288 341.403 56.7316 341.93 58.2568C342.806 60.7988 345.895 61.1602 347.783 62.618C348.482 63.157 349.585 65.0007 350.425 64.9762C351.877 64.9455 352.907 62.2505 352.962 61.0744Z" fill="#3F3D56"/>
<path d="M311.958 113.947C311.18 114.452 310.496 115.088 309.936 115.828C309.231 116.9 309.084 118.278 308.477 119.38C307.178 121.794 304.132 122.657 302.238 124.636C301.931 124.906 301.716 125.266 301.625 125.665C301.613 126.203 301.793 126.729 302.133 127.147L311.29 141.529C314.355 141.798 317.26 139.887 320.312 140.145C321.446 140.237 322.617 140.629 323.708 140.292C324.488 139.945 325.219 139.498 325.884 138.962C327.722 137.811 330.125 137.676 331.651 136.163C333.177 134.65 333.306 132.427 333.288 130.363C333.315 128.571 333.132 126.783 332.742 125.034C331.394 119.521 327.171 115.27 324.523 110.382C323.23 108 322.531 106.609 319.804 108.245C317.076 109.88 314.539 112.061 311.958 113.947Z" fill="#3F3D56"/>
<path d="M423.146 106.677C424.867 107.793 426.419 109.151 427.755 110.707C429.147 112.502 429.937 114.707 431.28 116.544C432.622 118.382 434.344 119.705 435.815 121.346C438.052 123.833 439.566 126.859 441.049 129.867C437.418 134.588 433.462 139.05 429.208 143.22C428.733 143.777 428.108 144.186 427.406 144.396C426.93 144.447 426.449 144.379 426.006 144.198C425.564 144.017 425.172 143.73 424.868 143.36C424.207 142.674 423.741 141.817 423.109 141.1C421.622 139.567 419.64 138.61 417.514 138.399C415.405 138.194 413.283 138.163 411.17 138.307C410.706 138.362 410.236 138.283 409.815 138.08C409.502 137.866 409.249 137.575 409.08 137.235C406.628 133.021 407.394 127.729 408.271 122.914L410.275 111.889C410.568 109.784 411.13 107.725 411.948 105.764C412.708 104.141 414.4 101.384 416.496 101.874C418.592 102.364 421.375 105.403 423.146 106.677Z" fill="#3F3D56"/>
<path d="M248.363 187.499L206.14 196.129L205.177 196.037L168.072 192.295V145.302L213.495 137.627L246.445 141.468L246.457 141.676V141.774L248.363 187.499Z" fill="#00BB14"/>
<path opacity="0.1" d="M248.363 187.499L206.14 196.129L205.177 196.037V147.862L246.457 141.676L248.363 187.499Z" fill="black"/>
<path opacity="0.05" d="M246.457 141.774L246.445 141.786L205.177 147.862L168.072 145.302L213.495 137.627L246.445 141.468L246.457 141.676V141.774Z" fill="black"/>
<path d="M270.428 140.947L228.204 149.584L227.242 149.486L190.137 145.743V98.7506L235.559 91.0757L268.509 94.9162L268.522 95.1244V95.2225L270.428 140.947Z" fill="#3F3D56"/>
<path opacity="0.1" d="M270.428 140.947L228.204 149.584L227.242 149.486V101.311L268.522 95.1244L270.428 140.947Z" fill="black"/>
<path opacity="0.05" d="M268.522 95.2225L268.509 95.2347L227.242 101.311L190.137 98.7506L235.559 91.0757L268.509 94.9162L268.522 95.1244V95.2225Z" fill="black"/>
</g>
<defs>
<clipPath id="clip0">
<rect width="582" height="431" fill="white"/>
</clipPath>
</defs>
</svg>
